<?xml version="1.0" encoding="UTF-8" standalone="no"?>
<svg
   xmlns:dc="http://purl.org/dc/elements/1.1/"
   xmlns:cc="http://creativecommons.org/ns#"
   xmlns:rdf="http://www.w3.org/1999/02/22-rdf-syntax-ns#"
   xmlns:svg="http://www.w3.org/2000/svg"
   xmlns="http://www.w3.org/2000/svg"
   xmlns:sodipodi="http://sodipodi.sourceforge.net/DTD/sodipodi-0.dtd"
   xmlns:inkscape="http://www.inkscape.org/namespaces/inkscape"
   version="1.1"
   id="svg2"
   xml:space="preserve"
   width="800"
   height="800"
   viewBox="0 0 800 800"
   sodipodi:docname="enlyze-s7.svg"
   inkscape:version="1.0.1 (3bc2e813f5, 2020-09-07)"
   inkscape:export-filename="C:\ENLYZE\S7-Project-Explorer\src\res\enlyze-s716.png"
   inkscape:export-xdpi="1.92"
   inkscape:export-ydpi="1.92"><sodipodi:namedview
     pagecolor="#ffffff"
     bordercolor="#666666"
     borderopacity="1"
     objecttolerance="10"
     gridtolerance="10"
     guidetolerance="10"
     inkscape:pageopacity="0"
     inkscape:pageshadow="2"
     inkscape:window-width="1920"
     inkscape:window-height="1001"
     id="namedview24"
     showgrid="false"
     inkscape:zoom="0.91875"
     inkscape:cx="186.12245"
     inkscape:cy="372.08616"
     inkscape:window-x="-9"
     inkscape:window-y="-9"
     inkscape:window-maximized="1"
     inkscape:current-layer="svg2"
     inkscape:document-rotation="0" /><metadata
     id="metadata8"><rdf:RDF><cc:Work
         rdf:about=""><dc:format>image/svg+xml</dc:format><dc:type
           rdf:resource="http://purl.org/dc/dcmitype/StillImage" /><dc:title /></cc:Work></rdf:RDF></metadata><defs
     id="defs6"><clipPath
       clipPathUnits="userSpaceOnUse"
       id="clipPath18"><path
         d="m 493.075,443.429 c -7.01,-0.157 -13.442,-2.668 -20.054,-7.081 v 0 c -5.493,-3.662 -9.346,-8.295 -12.156,-13.404 v 0 l -0.249,-0.97 -65.962,-141.079 -47.888,-105.625 -7.675,-19.233 -0.998,-4.617 h 0.042 L 331.672,139.855 302.377,77.5 c -0.273,-0.336 -0.973,-0.429 -2.121,-1.181 v 0 c -1.686,-1.127 -3.22,-1.261 -3.717,-1.299 v 0 l -77.276,-0.461 c -0.203,0.015 -2.797,0.117 -3.889,1.018 v 0 c -0.669,0.53 -1.129,0.417 -1.447,0.306 v 0 c -0.207,-0.073 -0.354,-0.146 -0.459,-0.041 v 0 l -20.547,43.528 h 0.039 l -2.789,7.88 -54.89,121.963 L 81.099,364.924 50.861,351.231 159.784,115.357 183.762,62.548 c 0,0 4.812,-7.567 7.007,-9.766 v 0 c 2.191,-2.223 5.048,-6.761 9.01,-8.301 v 0 c 3.944,-1.543 14.065,-5.236 19.465,-5.236 v 0 h 0.575 77.171 0.235 c 7.143,0 14.78,4.124 21.494,8.6 v 0 c 5.606,3.724 10.062,9.177 12.918,14.382 v 0 l 0.297,0.852 75.681,163.497 32.179,69.069 h -0.193 l 49.894,109.194 c 0.163,0.316 0.926,1.745 1.71,2.276 v 0 c 1.679,1.112 4.231,0.704 4.726,0.704 v 0 h 53.208 v 36.056 z m -3.431,-38.263 c -0.009,-0.021 -0.018,-0.041 -0.027,-0.06 v 0 z"
         id="path16" /></clipPath><linearGradient
       x1="0"
       y1="0"
       x2="1"
       y2="0"
       gradientUnits="userSpaceOnUse"
       gradientTransform="matrix(2174.1956,-338.20801,-338.20801,-2174.1956,37.30843,295.42346)"
       spreadMethod="pad"
       id="linearGradient36"><stop
         style="stop-opacity:1;stop-color:#473dfa"
         offset="0"
         id="stop24" /><stop
         style="stop-opacity:1;stop-color:#473dfa"
         offset="0.0273626"
         id="stop26" /><stop
         style="stop-opacity:1;stop-color:#4fd8cb"
         offset="0.46486473"
         id="stop28" /><stop
         style="stop-opacity:1;stop-color:#4fd8cb"
         offset="0.469231"
         id="stop30" /><stop
         style="stop-opacity:1;stop-color:#4fd8cb"
         offset="0.47450175"
         id="stop32" /><stop
         style="stop-opacity:1;stop-color:#42d3a5"
         offset="1"
         id="stop34" /></linearGradient><clipPath
       clipPathUnits="userSpaceOnUse"
       id="clipPath46"><path
         d="M 0,600 H 600 V 0 H 0 Z"
         id="path44" /></clipPath><linearGradient
       id="SVGID_7_"
       gradientUnits="userSpaceOnUse"
       x1="11.98"
       y1="29.75"
       x2="289.59491"
       y2="29.75"
       gradientTransform="matrix(10.531527,0,0,10.531527,-5.4632694,160.77521)"><stop
         offset="0"
         style="stop-color:#473DFA"
         id="stop72" /><stop
         offset="2.740000e-02"
         style="stop-color:#473DFA"
         id="stop74" /><stop
         offset="0.4692"
         style="stop-color:#4FD8CB"
         id="stop76" /><stop
         offset="1"
         style="stop-color:#42D3A5"
         id="stop78" /></linearGradient></defs><text
     xml:space="preserve"
     style="font-style:normal;font-weight:normal;font-size:290.58px;line-height:1.25;font-family:sans-serif;letter-spacing:-15px;fill:#000000;fill-opacity:1;stroke:none;stroke-width:3.02688"
     x="5.5446653"
     y="227.83621"
     id="text28"><tspan
       sodipodi:role="line"
       id="tspan26"
       x="5.5446653"
       y="227.83621"
       style="font-style:normal;font-variant:normal;font-weight:bold;font-stretch:normal;font-size:290.58px;font-family:sans-serif;-inkscape-font-specification:'sans-serif Bold';stroke-width:3.02688">S7</tspan></text><path
     class="st6"
     d="m 775.976,208.167 v 47.39187 h -72.66753 c -2.10631,0 -4.21261,1.05315 -5.26577,3.15946 L 489.51848,709.46767 c -8.42523,18.95674 -27.38197,30.54142 -47.39187,30.54142 h -98.99635 c -21.06306,0 -38.96665,-11.58468 -47.39187,-30.54142 l -174.82335,-379.13496 40.01981,-17.9036 171.66388,374.92235 c 2.10631,4.21261 5.26576,6.31892 9.47837,6.31892 h 101.10266 c 4.21261,0 7.37207,-2.10631 9.47837,-6.31892 L 659.07605,237.65527 c 8.42523,-17.90359 25.27567,-29.48827 45.28557,-29.48827 z"
     id="path81"
     style="fill:url(#SVGID_7_);stroke-width:10.5315" /><path
     class="st7"
     d="m 24.025,512.52812 40.019801,17.90359 93.730589,-205.36476 c 2.1063,-4.21262 5.26576,-6.31892 9.47837,-6.31892 h 88.46483 c 4.21261,0 7.37206,2.1063 9.47837,6.31892 l 191.67378,420.20791 c 8.42522,18.95675 27.38197,30.54142 47.39187,30.54142 h 96.89005 c 21.06305,0 40.0198,-12.63783 48.44502,-31.59458 L 764.39132,481.98669 723.31837,463.02994 605.36527,724.2118 c -2.10631,4.21261 -5.26576,6.31892 -9.47838,6.31892 h -92.67743 c -4.21261,0 -8.42522,-2.10631 -9.47837,-6.31892 L 309.42937,307.16335 C 301.00415,288.2066 282.0474,275.56877 260.98435,275.56877 H 159.88169 c -21.06305,0 -40.0198,12.63783 -48.44502,31.59458 z"
     id="path83"
     style="fill:#cccccc;stroke-width:10.5315" /></svg>
