<svg width="178" height="178" fill="none" version="1.1" xmlns="http://www.w3.org/2000/svg">
<rect x="2.5" y="2.5" width="173" height="173" rx="11.5" fill="white"/>
<text x="50%" y="155.95374" text-anchor="middle" style="fill:black;font-family:'IBM Plex Sans';font-size:53.3px;font-weight:600">S7</text>
<path d="m135 28.9v-6.94h-10.7c-2.99 0-5.51 1.7-6.77 4.32l-28.9 61.7-23.3-51.6c-1.26-2.78-4.1-4.63-7.26-4.63h-15.1c-3.16 0-5.99 1.85-7.26 4.63l-13.1 30.1 5.99 2.62 11-23.6 23.7 49.9c1.26 2.78 3.93 4.47 7.08 4.47h14.8c.632 0 1.26-.0759 1.86-.222l.438.939c1.26 2.78 4.1 4.48 7.1 4.48h14.5c3.16 0 6-1.85 7.26-4.63l17.2-38.4-6.15-2.78-17.7 38.3c-.315.618-.789.926-1.42.926h-13.9c-.631 0-1.26-.309-1.42-.926l-.804-1.78-.0428-.0949c.0372-.0752.0732-.151.108-.228l31.2-66c.158-.309.473-.463.787-.463h10.9zm-51.1 64.2-.0327-.0701-25.2-54c-.316-.618-.789-.926-1.42-.926h-13.3c-.631 0-1.1.309-1.42.926l-.789 1.69.775-1.64c.0172-.0365.069-.0369.0868-6e-4l26.1 53.1c.315.617.787.926 1.42.926h13.8z" clip-rule="evenodd" fill="black" fill-rule="evenodd"/>
<rect x="2.5" y="2.5" width="173" height="173" rx="11.5" stroke="black" stroke-width="5"/>
</svg>
