<svg width="178" height="178" fill="none" version="1.1" xmlns="http://www.w3.org/2000/svg">
<rect x="2.5" y="2.5" width="173" height="173" rx="11.5" fill="white"/>
<g style="fill:#000000" aria-label="S7">
<path d="m72.7 157q-4.8 0-8.15-1.71-3.3-1.71-5.7-4.48l4.74-4.58q1.92 2.24 4.26 3.41 2.4 1.17 5.28 1.17 3.25 0 4.9-1.39 1.65-1.44 1.65-3.84 0-1.87-1.07-3.04t-4-1.71l-3.52-.533q-11.1-1.76-11.1-10.8 0-2.51.906-4.53.959-2.03 2.72-3.46t4.21-2.19q2.51-.8 5.65-.8 4.21 0 7.36 1.39t5.38 4.1l-4.8 4.53q-1.39-1.71-3.36-2.77t-4.96-1.07q-3.04 0-4.58 1.17-1.49 1.12-1.49 3.2 0 2.13 1.23 3.14t3.94 1.49l3.46.64q5.65 1.01 8.31 3.62 2.72 2.56 2.72 7.2 0 2.66-.959 4.85-.906 2.13-2.72 3.73-1.76 1.55-4.37 2.4-2.56.853-5.92.853z" style="fill:#000000"/>
<path d="m98.3 156 13-31.5h-12.8v6.82h-5.97v-12.5h25.8v6.02l-12.6 31.2z" style="fill:#000000"/>
</g>
<path d="m135 28.9v-6.94h-10.7c-2.99 0-5.51 1.7-6.77 4.32l-28.9 61.7-23.3-51.6c-1.26-2.78-4.1-4.63-7.26-4.63h-15.1c-3.16 0-5.99 1.85-7.26 4.63l-13.1 30.1 5.99 2.62 11-23.6 23.7 49.9c1.26 2.78 3.93 4.47 7.08 4.47h14.8c.632 0 1.26-.0759 1.86-.222l.438.939c1.26 2.78 4.1 4.48 7.1 4.48h14.5c3.16 0 6-1.85 7.26-4.63l17.2-38.4-6.15-2.78-17.7 38.3c-.315.618-.789.926-1.42.926h-13.9c-.631 0-1.26-.309-1.42-.926l-.804-1.78-.0428-.0949c.0372-.0752.0732-.151.108-.228l31.2-66c.158-.309.473-.463.787-.463h10.9zm-51.1 64.2-25.2-54.1c-.316-.618-.789-.926-1.42-.926h-13.3c-.631 0-1.1.309-1.42.926l-.789 1.69.775-1.64c.0172-.0365.069-.0369.0868-6e-4l26.1 53.1c.315.617.787.926 1.42.926h13.8z" clip-rule="evenodd" fill="black" fill-rule="evenodd"/>
<rect x="2.5" y="2.5" width="173" height="173" rx="11.5" stroke="black" stroke-width="5"/>
</svg>
