<svg width="150" height="150" xmlns="http://www.w3.org/2000/svg">
 <defs>
  <linearGradient id="SVGID_7_" x1="12" x2="290" y1="29.8" y2="29.8" gradientTransform="matrix(2.07 0 0 2.07 -4.64 29.2)" gradientUnits="userSpaceOnUse">
   <stop style="stop-color:#473DFA" offset="0"/>
   <stop style="stop-color:#473DFA" offset=".0274"/>
   <stop style="stop-color:#4FD8CB" offset=".469"/>
   <stop style="stop-color:#42D3A5" offset="1"/>
  </linearGradient>
 </defs>
 <g transform="matrix(.196 0 0 .196 -3.57 -2.39)" style="fill:#000000" aria-label="S7">
  <path d="m180 22.7v44.8q-17.5-7.8-34.1-11.8-16.6-3.97-31.4-3.97-19.6 0-28.9 5.39t-9.36 16.7q0 8.51 6.24 13.3 6.38 4.68 23 8.09l23.3 4.68q35.3 7.09 50.2 21.6 14.9 14.5 14.9 41.1 0 35-20.9 52.2-20.7 17-63.4 17-20.1 0-40.4-3.83-20.3-3.83-40.6-11.4v-46.1q20.3 10.8 39.2 16.3 19 5.39 36.6 5.39 17.9 0 27.4-5.96t9.51-17q0-9.93-6.53-15.3-6.38-5.39-25.7-9.65l-21.1-4.68q-31.8-6.81-46.5-21.7-14.6-14.9-14.6-40.2 0-31.6 20.4-48.7 20.4-17 58.7-17 17.5 0 35.9 2.7 18.4 2.55 38.2 7.8z" style="stroke-width:3.03"/>
  <path d="m219 16h160v30.8l-82.6 181h-53.2l78.2-172h-102z" style="stroke-width:3.03"/>
 </g>
 <path class="st6" d="m149 38.5v9.31h-14.3c-.414 0-.827.207-1.03.621l-41 88.5c-1.65 3.72-5.38 6-9.31 6h-19.4c-4.14 0-7.65-2.28-9.31-6l-34.3-74.5 7.86-3.52 33.7 73.6c.414.827 1.03 1.24 1.86 1.24h19.9c.827 0 1.45-.414 1.86-1.24l40.5-88.3c1.65-3.52 4.96-5.79 8.9-5.79z" style="fill:url(#SVGID_7_);stroke-width:2.07"/>
 <path class="st7" d="m1.15 98.3 7.86 3.52 18.4-40.3c.414-.827 1.03-1.24 1.86-1.24h17.4c.827 0 1.45.414 1.86 1.24l37.6 82.5c1.65 3.72 5.38 6 9.31 6h19c4.14 0 7.86-2.48 9.52-6.21l22.5-51.5-8.07-3.72-23.2 51.3c-.414.827-1.03 1.24-1.86 1.24h-18.2c-.827 0-1.65-.414-1.86-1.24l-36.2-81.9c-1.65-3.72-5.38-6.21-9.52-6.21h-19.9c-4.14 0-7.86 2.48-9.52 6.21z" style="fill:#cccccc;stroke-width:2.07"/>
</svg>
